<?xml version="1.0" encoding="utf-8"?>
<svg xmlns="http://www.w3.org/2000/svg" height="52" width="52" viewBox="0 0 52 52">
  <g>
    <path id="path1" transform="rotate(0,26,26) translate(0,13.6353793144226) scale(1.625,1.625)  " fill="#464646" d="M26.099976,2.1999856L26.099976,5.1999489 27.400024,5.1999489 27.400024,2.1999856 27.900024,2.1999856C28.299988,2.1999854,28.700012,2.1999854,29.099976,2.299975L29.200012,2.299975 29.200012,8.299902 30.5,8.299902 30.5,2.4999696C31,2.5999745,31.5,2.7999688,32,2.9999634L32,13.499836C32,13.499836 25.299988,12.299853 18.900024,13.59984 18.900024,13.59984 6.2999878,16.799799 0.70001221,14.19984 0.70001221,14.19984 0.099975586,13.59984 0,13.099847L0,2.9999634C0,2.9999634,0.40002441,3.3999678,1.5999756,3.7999569L1.7000122,3.7999569 1.7000122,9.699894 3,9.699894 3,4.0999561 3.2000122,4.0999561C3.7000122,4.1999613,4.2000122,4.1999613,4.7999878,4.2999507L4.7999878,7.1999246 6,7.1999246 6,4.2999507 6.2999878,4.2999507 7.4000244,4.2999507 7.7999878,4.2999507 7.7999878,7.1999246 9.0999756,7.1999246 9.0999756,4.1999613C9.5,4.1999613,10,4.0999561,10.5,4.0999561L10.799988,4.0999561 10.799988,9.699894 12.099976,9.699894 12.099976,3.8999616 12.599976,3.7999569C13,3.6999672,13.299988,3.6999672,13.700012,3.5999623L13.900024,3.5999623 13.900024,6.2999264 15.200012,6.2999264 15.200012,3.4999576 15.599976,3.3999678C16,3.2999628,16.5,3.1999732,16.900024,3.1999732L17,3.1999732 17,5.9999271 18.299988,5.9999271 18.299988,2.9999634 18.5,2.9999634C19,2.8999737,19.5,2.8999737,20.099976,2.7999688L20.099976,8.4998961 21.400024,8.4998961 21.400024,2.4999696 21.5,2.4999696C22,2.3999799,22.5,2.3999799,23,2.3999802L23.200012,2.3999802 23.200012,5.0999442 24.5,5.0999442 24.5,2.299975 24.900024,2.299975C25.299988,2.299975,25.700012,2.299975,26.099976,2.1999856z M7.2000122,0C11.099976,-8.6201908E-08 14.200012,0.70000359 14.200012,1.4999818 14.200012,2.299975 11.099976,2.9999634 7.2000122,2.9999634 3.2999878,2.9999634 0.20001221,2.299975 0.20001221,1.4999818 0.20001221,0.70000359 3.2999878,-8.6201908E-08 7.2000122,0z" />
  </g>
</svg>

