<?xml version="1.0" encoding="utf-8"?>
<svg xmlns="http://www.w3.org/2000/svg" height="52" width="52" viewBox="0 0 52 52">
  <g>
    <path id="path1" transform="rotate(0,26,26) translate(5.78011286258698,0) scale(1.625,1.625)  " fill="#464646" d="M19.094993,19.556934L21.068016,19.556934C21.068016,23.490859,18.408042,26.924911,14.599997,27.907934L14.107016,25.997917C17.044028,25.238891,19.094993,22.590965,19.094993,19.556934z M12.443007,2.8509998C8.9690051,6.5820007 1.9730015,15.032001 1.9730015,19.557001 1.9730015,25.33 6.6700039,30.027 12.443007,30.027 18.21601,30.027 22.913013,25.33 22.913013,19.557001 22.913013,15.032001 15.917009,6.5820007 12.443007,2.8509998z M12.443007,0L13.151007,0.7310009C13.630008,1.2250004 24.886014,12.906001 24.886014,19.557001 24.886014,26.418 19.30401,32 12.443007,32 5.5820026,32 0,26.418 0,19.557001 0,12.906001 11.256006,1.2250004 11.735007,0.7310009z" />
  </g>
</svg>

