<?xml version="1.0" encoding="utf-8"?>
<svg xmlns="http://www.w3.org/2000/svg" height="52" width="52" viewBox="0 0 52 52">
  <g>
    <path id="path1" transform="rotate(0,26,26) translate(0,0.504552037880433) scale(1.62500048428788,1.62500048428788)  " fill="#464646" d="M25.108002,9.7950144C26.164001,11.988008 26.654022,14.687014 26.352997,17.528995 26.151001,19.429996 25.615021,21.186007 24.835022,22.722018L22.322021,21.539004C22.971008,20.278995 23.421021,18.812015 23.587006,17.237002 23.83902,14.863008 23.406006,12.602999 22.513,10.83301z M30.25,7.7470102C31.640015,10.783998 32.281006,14.356997 31.884003,18.118991 31.615021,20.640994 30.895996,22.993991 29.852997,25.079989L27.34201,23.902011C28.255005,22.088992 28.882019,20.036014 29.117004,17.82001 29.46701,14.526003 28.89801,11.390993 27.671021,8.7749948z M19.613007,0L19.613007,31.379003 8.3120117,21.89899 0,21.89899 0,9.4800119 8.3160095,9.4800119z" />
  </g>
</svg>

