<?xml version="1.0" encoding="utf-8"?>
<svg xmlns="http://www.w3.org/2000/svg" height="52" width="52" viewBox="0 0 52 52">
  <g>
    <path id="path1" transform="rotate(0,26,26) translate(1.28374993801117,0) scale(1.625,1.625)  " fill="#464646" d="M7.4800079,22.939783C9.5750086,24.933768 12.366999,26.130755 15.459008,26.130755 18.451012,26.130755 21.144003,25.033764 23.239004,23.138786L23.239004,23.238783C23.239004,23.238783 26.529988,24.534769 27.227986,28.524729 27.227986,28.524729 14.860986,36.603655 3.291014,28.125738 3.2910142,28.025734 4.5880106,23.537777 7.4800079,22.939783z M12.067988,17.852833C12.666987,19.149817 13.963007,20.046812 15.459008,20.046812 16.95501,20.046812 18.252007,19.149817 18.849999,17.852833z M20.146994,9.5749103C19.248986,9.5749103,18.352013,10.272902,17.952996,11.369892L17.852989,11.668893 18.751,11.668893 18.849999,11.568896C19.549004,10.6719,20.744986,10.6719,21.443991,11.568896L21.54299,11.668893 22.441,11.668893 22.340994,11.369892C21.842001,10.272902,21.045004,9.5749103,20.146994,9.5749103z M9.8739884,9.5749103C8.9760096,9.5749103,8.0790064,10.272902,7.6799896,11.369892L7.580014,11.668893 8.4779933,11.668893 8.5769923,11.568896C9.2759974,10.6719,10.472011,10.6719,11.171016,11.568896L11.270015,11.668893 12.067988,11.668893 11.96899,11.369892C11.570003,10.272902,10.771999,9.5749103,9.8739884,9.5749103z M14.063013,0C13.265009,0.39899832 12.567011,0.89799035 12.067988,1.6959834 11.369991,2.6929755 11.171016,3.8899629 11.469997,4.9869525L12.467005,4.7869536C12.268,3.8899629 12.467005,2.9919724 12.965998,2.1939797 13.464991,1.3959867 14.361993,0.79799283 15.360009,0.5979938 16.95501,0.29899696 18.451012,1.2969887 18.751,2.6929755 18.849999,3.1919712 18.751,3.7899653 18.451012,4.1889598 18.152001,4.6879556 17.653984,4.9869525 17.054985,5.0869538 16.157006,5.2859494 15.260003,4.6879556 15.059991,3.8899629 14.960992,3.5909657 15.059991,3.2909693 15.260003,3.0919699 15.459008,2.792973 15.758996,2.5929741 16.058007,2.5929741 16.555992,2.4929766 17.054985,2.792973 17.054985,3.2909691 17.054985,3.3909668 17.054985,3.5909657 16.95501,3.6899635 16.856011,3.7899653 16.756005,3.8899629 16.555992,3.9889609L16.756005,4.9869525C17.154991,4.886955 17.554009,4.6879556 17.752983,4.2889611 17.952996,3.9889609 18.051995,3.4909682 17.952996,3.1919712 17.752983,2.1939797 16.756005,1.5959856 15.758996,1.7949852 15.159997,1.8949826 14.661004,2.2939772 14.361993,2.6929755 14.063013,3.1919712 13.963007,3.6899638 14.063013,4.2889611 14.361993,5.4859483 15.459008,6.282942 16.655998,6.282942 16.856011,6.282942 16.95501,6.282942 17.154991,6.1839435 18.053002,5.9839446 18.751,5.5849463 19.149987,4.7869536 19.549004,4.0889623 19.748009,3.2909693 19.549004,2.4929766 19.348992,1.3959867 18.650994,0.59799392 17.752983,0.099997518 22.541006,1.0969898 26.330982,4.886955 27.128987,9.8739035L27.227986,9.8739035C29.024006,9.8739035 30.42,11.369892 30.42,13.164873 30.42,14.960861 29.024006,16.456843 27.227986,16.456843 27.028981,16.456843 26.73,16.456843 26.529988,16.356844 24.83498,20.944805 20.446005,24.335774 15.360009,24.335774 9.8739884,24.335774 5.2860086,20.545807 3.890013,15.358853 3.690001,15.358853 3.4909959,15.458858 3.1920149,15.458858 1.3959955,15.458858 1.7948878E-08,13.96287 0,12.167889 1.7948878E-08,10.372899 1.3959955,8.8769152 3.1920149,8.8769152 3.3909898,8.8769152 3.690001,8.8769152 3.890013,8.975917 5.1860025,4.1889598 9.1759913,0.59799392 14.063013,0z" />
  </g>
</svg>

