<?xml version="1.0" encoding="utf-8"?>
<svg xmlns="http://www.w3.org/2000/svg" height="52" width="52" viewBox="0 0 52 52">
  <g>
    <path id="path1" transform="rotate(0,26,26) translate(9.67037534713745,0) scale(1.625,1.625)  " fill="#00ACED" d="M3.3859826,0C4.3040116,0 5.0939887,0.39199829 5.7479795,1.177002 6.4039848,1.9589996 6.7330249,2.9029999 6.7330249,4.0019989L6.7330249,9.8069916 16.215985,9.8069916C17.077985,9.8069916 17.814982,10.168991 18.428996,10.899002 19.043008,11.626999 19.349953,12.498001 19.349953,13.516998 19.349953,14.531006 19.043008,15.406006 18.43101,16.134995 17.819011,16.858002 17.083966,17.225006 16.224957,17.225006L6.7330249,17.225006 6.7330249,20.033997C6.7330249,21.138 7.0549849,22.072006 7.7059849,22.843994 8.35198,23.612991 9.1379908,23.998993 10.065967,23.998993L16.725995,23.998993C17.651957,23.998993 18.447001,24.390991 19.106973,25.175995 19.767007,25.960999 20.098,26.901001 20.098,28 20.098,29.097 19.767007,30.039993 19.106973,30.822998 18.447001,31.606995 17.651957,32 16.728009,32L10.069996,32C7.2919839,32 4.9199775,30.832001 2.9530001,28.492004 0.98400783,26.151001 1.8244828E-07,23.335999 0,20.037994L0,4.0059967C1.8244828E-07,2.875 0.32897931,1.9250031 0.98400783,1.1539917 1.6400129,0.38800049 2.4409764,0 3.3859826,0z" />
  </g>
</svg>

