<?xml version="1.0" encoding="utf-8"?>
<svg xmlns="http://www.w3.org/2000/svg" height="52" width="52" viewBox="0 0 52 52">
  <g>
    <path id="path1" transform="rotate(0,26,26) translate(0,5.19999969005585) scale(1.625,1.625)  " fill="#464646" d="M25.399963,4.900017C24.899963,4.900017 24.299988,5.1000292 23.899963,5.4999921 23.099976,6.2999785 23.099976,7.700001 23.899963,8.4999878 24.699951,9.2999746 26.099976,9.2999746 26.899963,8.4999878 27.699951,7.700001 27.699951,6.2999785 26.899963,5.4999921 26.5,5.1000292 26,4.900017 25.399963,4.900017z M21.399963,0.90002301L31,1.6000342C31.199951,1.6000341,31.399963,1.799985,31.399963,1.9999966L32,11.60002C32,11.699995,32,11.900007,31.899963,11.999983L18.5,25.299952C18.399963,25.399988 18.299988,25.399988 18.199951,25.399988 18.099976,25.399988 18,25.399988 17.899963,25.299952L7.6999512,15.19999C7.5999756,15.100015 7.5999756,14.999978 7.5999756,14.900003 7.5999756,14.799966 7.6999512,14.699991 7.6999512,14.600016L21.099976,1.1000347C21.099976,0.99999841,21.299988,0.90002295,21.399963,0.90002301z M15,0L19.5,0.29998731 5.3999634,14.499979C5.2999878,14.600016 5.2999878,14.699991 5.2999878,14.799966 5.2999878,14.900003 5.2999878,14.999978 5.3999634,15.100015L13.399963,23.100002C12,24.499964 11,25.499964 11,25.499964 10.899963,25.600001 10.799988,25.600001 10.699951,25.600001 10.599976,25.600001 10.5,25.600001 10.399963,25.499964L0.099975586,15.400002C0,15.299966 0,15.19999 0,15.100015 0,14.999978 0.099975586,14.900003 0.099975586,14.799966L14.599976,0.10003614C14.699951,0.10003628,14.799988,-2.0123844E-07,15,0z" />
  </g>
</svg>

