<?xml version="1.0" encoding="utf-8"?>
<svg xmlns="http://www.w3.org/2000/svg" height="52" width="52" viewBox="0 0 52 52">
  <g>
    <path id="path1" transform="rotate(0,26,26) translate(0.810021589322709,0) scale(1.62494944193311,1.62494944193311)  " fill="#464646" d="M17.056056,1.9987071C16.490456,2.0039703 15.880349,2.2834293 15.476976,2.5161702 15.460985,2.9511651 15.455004,3.3931638 15.446978,3.8381683 15.407,6.3921544 15.364977,9.0351435 13.821002,10.918129 12.636005,12.364119 9.5329808,15.671091 9.4009923,15.810097L9.2249974,15.9981 8.9800033,16.077094C7.3420042,16.607091,3.6759917,17.202088,1.9999982,17.45909L1.9999982,27.653029C3.7990078,28.335017 7.167993,29.539019 8.4020003,29.665011 11.805989,30.01001 20.245984,30.008011 23.021983,30.000016L23.850991,30.000016C25.147988,29.963013 25.44999,29.41701 25.590981,29.134022 25.647988,29.01702 25.777991,28.569024 25.873969,28.242015 26.286994,26.824025 26.555976,25.981042 27.133979,25.59904 27.230964,25.452038 27.377967,25.032042 27.476966,24.749039 27.596991,24.403048 27.724982,24.043049 27.875983,23.715048 28.069981,23.299052 28.061986,22.371062 27.993962,21.844058L27.921971,21.279059 28.370976,20.927071C28.52097,20.806069 28.972966,20.346066 29.001988,19.901076 29.034978,19.415072 28.637975,18.674079 28.439977,18.391076L28.15598,17.985087 28.306981,17.509093C28.311986,17.492079 28.862981,15.769097 28.998967,14.610107 28.947972,13.632117 27.22898,12.965113 26.338965,12.895106 25.306985,12.821117 23.21699,13.058115 21.536998,13.255105 20.042981,13.428108 19.179,13.527106 18.710982,13.493109L17.187974,13.386116 17.894973,12.033112C19.252974,9.4301306 19.640973,4.3831636 18.189986,2.5901748 17.922988,2.2371801 17.644973,2.0621783 17.294997,2.0141744 17.216746,2.0027989 17.136855,1.9979551 17.056056,1.9987071z M17.065818,2.6429754E-05C17.231179,-0.00059572052 17.398623,0.0097459674 17.567,0.033183376 18.442,0.15319298 19.20198,0.61118283 19.765973,1.3581876 21.587993,3.6111649 21.323987,8.2691418 20.31297,11.38213 20.635999,11.34612 20.976972,11.306126 21.304974,11.268117 23.163981,11.051123 25.26899,10.802131 26.495978,10.90113 27.965978,11.017127 30.999972,12.088119 30.999972,14.655105L30.994967,14.760101C30.890963,15.743096 30.542972,17.011094 30.346988,17.675091 30.643985,18.202082 31.058963,19.118077 30.997989,20.034072 30.935977,20.958062 30.415988,21.684056 30.024966,22.106064 30.061984,22.742047 30.051974,23.779044 29.689977,24.55704 29.565984,24.826035 29.463963,25.123046 29.364964,25.40704 29.112981,26.130028 28.874974,26.815037 28.33698,27.203034 28.173985,27.495024 27.919988,28.368022 27.793982,28.800025 27.614966,29.416018 27.507972,29.776017 27.377967,30.033005 26.561988,31.657002 25.01899,32.000003 23.861977,32.000003L23.845986,32.000003 23.023997,32.000003C22.691996,32.000994 22.300975,32.000994 21.863994,32.000994 18.218978,32.000994 11.329,31.972994 8.2000045,31.655003 6.274012,31.457999 1.2080068,29.495013 0.63601658,29.272023L0,29.023017 0,15.729104 0.85800121,15.606104C0.91100994,15.5991 5.9989876,14.865096 8.1249932,14.24811 8.8149947,13.508109 11.291006,10.85012 12.274007,9.6501299 13.375996,8.3051373 13.412983,6.0181481 13.447987,3.8061711 13.457996,3.1641766 13.468006,2.524181 13.502002,1.906173L13.526996,1.4451773 13.894977,1.1661874C14.063543,1.0365895,15.467325,0.0060429077,17.065818,2.6429754E-05z" />
  </g>
</svg>

