<?xml version="1.0" encoding="utf-8"?>
<svg xmlns="http://www.w3.org/2000/svg" height="52" width="52" viewBox="0 0 52 52">
  <g>
    <path id="path1" transform="rotate(0,26,26) translate(8.12499254196571,0) scale(1.62500067800312,1.62500067800312)  " fill="#464646" d="M8.0049999,29.999987L14.005,29.999987C14.557979,29.999987 15.005,30.447008 15.005,30.999987 15.005,31.553026 14.557979,31.999987 14.005,31.999987L8.0049999,31.999987C7.4520216,31.999987 7.0050001,31.553026 7.0050004,30.999987 7.0050001,30.447008 7.4520216,29.999987 8.0049999,29.999987z M7.0050175,27L15.005017,27C15.558018,27 16.005017,27.447 16.005017,28 16.005017,28.553 15.558018,29 15.005017,29L7.0050175,29C6.4520173,29 6.0050173,28.553 6.0050175,28 6.0050173,27.447 6.4520173,27 7.0050175,27z M11.829862,6.9669685L9.3428085,10.299971C8.7477957,11.096972 8.3247867,11.917973 8.0877817,12.741974 7.693773,14.102974 7.5647703,16.022976 9.1858051,17.443977 9.3701842,17.605852 9.5881577,17.73765 9.8292274,17.834486L9.831794,17.835424 9.8535047,17.800544C9.8631525,17.786657 9.8735998,17.773122 9.8848519,17.759996 12.195282,15.051934 10.840029,11.77586 10.827027,11.743858 10.718007,11.488853 10.836029,11.195847 11.090076,11.087843 11.345123,10.979841 11.638178,11.098845 11.746198,11.351851 11.808897,11.496588 13.121964,14.673672 11.204747,17.655963L11.110436,17.798389 11.123908,17.794046C14.263579,16.721575 14.166663,13.117411 14.162912,13.078974 14.091911,10.503971 12.562878,8.0179691 11.829862,6.9669685z M11.813862,5.316967L12.219871,5.8129673C12.335873,5.9549675 15.058931,9.3379707 15.160933,13.022974 15.249936,14.045974 14.750925,18.143978 10.645837,18.952979 10.559835,18.970979 10.471833,18.978979 10.380831,18.978979 10.283829,18.978979 10.186827,18.969979 10.090825,18.949979 9.4938118,18.830978 8.9528002,18.570978 8.5257908,18.195978 6.5107476,16.427977 6.6527506,14.103974 7.1267607,12.464973 7.3977666,11.524971 7.8737769,10.594971 8.5417916,9.7009697z M11,2C6.0370001,2 2,6.0580006 2,11.046 2,12.438 2.316,13.786999 2.9400001,15.052L2.9900002,15.17C3.414,16.408999,5.5070001,19.188,6.2760001,20.151999L6.3480001,20.254C7.2700001,21.757,7.6190001,23.115,7.7499999,24L14.21,24C14.341,23.115,14.69,21.757,15.612,20.254L15.683001,20.153C15.706,20.122999 18.036,17.193 18.823,15.523999 19.604,14.12 20,12.593 20,11.046 20,6.0580006 15.963,2 11,2z M11,0C17.065001,0 22,4.9549999 22,11.046 22,12.934 21.517,14.797999 20.601,16.438 19.795,18.151999 17.621,20.927 17.287,21.349999 16.09,23.331 16.134,24.938 16.135,24.954999L16.173,25.992 15.136,26 5.7710001,26 5.825,24.947C5.8260001,24.938 5.8700001,23.331 4.674,21.349999 4.2290001,20.790999 1.75,17.622999 1.1199999,15.882 0.37700033,14.355 0,12.729 0,11.046 0,4.9549999 4.9350002,0 11,0z" />
  </g>
</svg>

