<?xml version="1.0" encoding="utf-8"?>
<svg xmlns="http://www.w3.org/2000/svg" height="52" width="52" viewBox="0 0 52 52">
  <g>
    <path id="path1" transform="rotate(0,26,26) translate(0.0543248202274143,0) scale(1.62160392549478,1.62160392549478)  " fill="#464646" d="M11.736017,21.79002C10.633015,21.79002 9.7370127,22.684019 9.7370127,23.782016 9.7370127,24.881015 10.633015,25.774015 11.736017,25.774015 12.839021,25.774015 13.735022,24.881015 13.735022,23.782016 13.735022,22.684019 12.839021,21.79002 11.736017,21.79002z M11.736017,20.790022C13.389022,20.790022 14.735024,22.13302 14.735024,23.782016 14.735024,25.432014 13.389022,26.774013 11.736017,26.774013 10.083013,26.774013 8.7370108,25.432014 8.7370108,23.782016 8.7370108,22.13302 10.083013,20.790022 11.736017,20.790022z M15.143864,13.185018C15.755829,14.450016 15.680833,16.454012 15.677832,16.541012 15.526842,18.892006 17.048754,19.110006 17.222744,19.126005L17.234743,19.624004 17.234743,19.124006C17.751213,19.124006,18.167375,18.974132,18.501169,18.748945L18.621694,18.661709 18.63933,18.642666C18.663496,18.619064,18.689087,18.596454,18.716087,18.574955L18.768322,18.537288 18.842882,18.467769C19.563545,17.755905 19.762972,16.717762 19.765596,16.702011 19.899587,14.582015 16.489786,13.445018 15.143864,13.185018z M6.7380184,13.182019C5.6350215,13.182019 4.739024,14.076017 4.739024,15.174016 4.739024,16.273014 5.6350215,17.166013 6.7380184,17.166013 7.8410157,17.166013 8.7370127,16.273014 8.7370127,15.174016 8.7370127,14.076017 7.8410157,13.182019 6.7380184,13.182019z M15.131864,12.18202L15.315854,12.20002C17.276741,12.57302 20.937528,14.020016 20.756538,16.824011 20.670824,17.302978 20.455232,17.937412 20.074364,18.521948L20.009727,18.617231 20.053381,18.657837C20.07699,18.682121,20.099604,18.707832,20.121103,18.734956L29.43322,30.445009C29.777223,30.877012 29.706222,31.505014 29.273218,31.849016 29.089216,31.996017 28.870212,32.067016 28.65221,32.067016 28.357206,32.067016 28.066202,31.938017 27.8692,31.689016L18.556084,19.978962C18.534645,19.951961,18.514826,19.924196,18.496609,19.895782L18.489876,19.884021 18.400528,19.920496C18.055839,20.049438,17.668405,20.124004,17.234743,20.124004L17.170746,20.124004C17.112749,20.121004 14.460903,19.872003 14.678891,16.489011 14.700889,15.956012 14.656892,14.362015 14.196918,13.528018 14.050927,13.265018 14.057927,12.962019 14.213918,12.698019 14.399907,12.38402 14.758886,12.18202 15.131864,12.18202z M6.7380184,12.18202C8.391014,12.18202 9.7370108,13.525018 9.7370108,15.174016 9.7370108,16.824012 8.391014,18.166012 6.7380184,18.166012 5.0850233,18.166012 3.7390269,16.824012 3.7390274,15.174016 3.7390269,13.525018 5.0850233,12.18202 6.7380184,12.18202z M21.838009,7.0159833C20.735012,7.0159833 19.839014,7.9099914 19.839014,9.008001 19.839014,10.107011 20.735012,11.000018 21.838009,11.000018 22.941006,11.000018 23.837004,10.107011 23.837004,9.008001 23.837004,7.9099914 22.941006,7.0159833 21.838009,7.0159833z M21.838009,6.0159747C23.491005,6.0159747 24.837002,7.3589866 24.837002,9.008001 24.837002,10.658015 23.491005,12.000027 21.838009,12.000027 20.185015,12.000027 18.839018,10.658015 18.839018,9.008001 18.839018,7.3589866 20.185015,6.0159747 21.838009,6.0159747z M12.424018,5.3890263C11.321015,5.3890263 10.425012,6.283025 10.425012,7.3810236 10.425012,8.4800221 11.321015,9.3730208 12.424018,9.3730208 13.52702,9.3730208 14.423022,8.4800221 14.423022,7.3810236 14.423022,6.283025 13.52702,5.3890263 12.424018,5.3890263z M12.424018,4.3890278C14.077021,4.3890278 15.423025,5.7320258 15.423025,7.3810236 15.423025,9.0310208 14.077021,10.373019 12.424018,10.373019 10.771014,10.373019 9.4250105,9.0310208 9.4250105,7.3810236 9.4250105,5.7320258 10.771014,4.3890278 12.424018,4.3890278z M16.006149,0C24.825083,-2.9851887E-07 32.000015,6.8989865 32.000015,15.380005 32.000015,17.09198 31.289053,17.880981 30.692041,18.242004 29.151068,19.174987 27.024071,18.111999 26.78808,17.987976 24.9011,17.208008 24.335096,17.729004 23.785082,18.234008L22.433102,16.760009C23.504108,15.778015 24.873087,15.026977 27.637071,16.179992 28.27107,16.502014 29.258062,16.77301 29.658052,16.530029 29.875061,16.396972 30.000061,15.979004 30.000061,15.380005 30.000061,8.0020139 23.722093,1.9999997 16.006149,1.9999997 8.4362,1.9999997 2.2902504,7.8939816 2.0112606,15.416992 1.8632517,19.422973 3.2242642,23.127014 5.8452462,25.846985 8.4271973,28.525024 11.946182,30 15.756151,30 15.75017,30 18.429134,29.880005 20.349134,27.960022L21.763124,29.374023C19.268118,31.869018,15.92714,31.994995,15.785143,32L15.783159,32C11.397176,32 7.3672074,30.307983 4.4062317,27.234008 1.4042707,24.119995 -0.15571489,19.896972 0.01228284,15.343017 0.3312809,6.7390134 7.3562211,-2.9851887E-07 16.006149,0z" />
  </g>
</svg>

