<?xml version="1.0" encoding="utf-8"?>
<svg xmlns="http://www.w3.org/2000/svg" height="52" width="52" viewBox="0 0 52 52">
  <g>
    <path id="path1" transform="rotate(0,26,26) translate(0,0.0958390938567497) scale(1.62520536395142,1.62520536395142)  " fill="#464646" d="M22.213899,18.371642C22.469625,18.362643,22.728348,18.451143,22.929322,18.639143L27.295022,22.708066C27.698983,23.084035 27.721015,23.717049 27.344029,24.121033 27.147023,24.332027 26.881052,24.43902 26.613066,24.43902 26.369066,24.43902 26.124089,24.350032 25.931111,24.170043L21.566449,20.102097C21.162487,19.726128 21.139479,19.093113 21.516464,18.689129 21.705446,18.487137 21.958173,18.380641 22.213899,18.371642z M14.069963,15.389733L2.1530304,27.308013C2.1170292,27.344013 2.0870285,27.376013 2.0640297,27.402013 2.0880299,27.429013 2.1180286,27.461013 2.1550293,27.499013 2.6760368,28.024014 2.9720421,28.293014 3.2740459,28.568013 3.5790501,28.846014 3.8890553,29.130013 4.4180622,29.657014 4.486063,29.724014 4.5400639,29.774014 4.5810642,29.809014 4.6240654,29.773014 4.6780663,29.722014 4.7480659,29.653014L16.576273,17.824219z M25.447987,13.158011L30.995961,13.158011C31.548959,13.158011 31.995956,13.606011 31.995956,14.158011 31.995956,14.710011 31.548959,15.158011 30.995961,15.158011L25.447987,15.158011C24.894989,15.158011 24.447991,14.710011 24.447991,14.158011 24.447991,13.606011 24.894989,13.158011 25.447987,13.158011z M17.992255,11.469007C17.969255,11.490007,17.944254,11.515007,17.914254,11.545007L15.483786,13.97575 17.990455,16.409967 20.47229,13.928008C20.48629,13.914008 20.499291,13.901008 20.510291,13.889008 19.947283,13.319008 19.601278,12.999008 19.248273,12.673007 18.901268,12.352007 18.546263,12.025007 17.992255,11.469007z M17.890253,9.4180059C18.527263,9.4410067 18.986269,9.6330061 19.376274,10.025006 19.923282,10.574007 20.268287,10.892007 20.605292,11.204007 20.983297,11.552007 21.351303,11.893007 21.959311,12.509007 22.816324,13.379008 22.790323,14.437008 21.88831,15.340009L6.1620865,31.068014C5.7850819,31.444015 5.2640743,31.878015 4.5810642,31.878015 3.8990555,31.878015 3.3800468,31.447015 3.005043,31.073014 2.5070343,30.575014 2.2130318,30.308014 1.9260273,30.046014 1.6050224,29.753014 1.2910175,29.466014 0.73700905,28.908013 -0.2460041,27.921014 -0.2460041,26.878013 0.73900986,25.894012L16.499234,10.131006C16.830238,9.8000069,17.288245,9.4180059,17.890253,9.4180059z M8.519825,4.0842972C8.7757034,4.0904217,9.0292082,4.1941776,9.2197113,4.3946896L13.338781,8.7239332C13.718788,9.1239557 13.703787,9.7569914 13.302781,10.138013 13.109777,10.322023 12.861773,10.413028 12.613769,10.413028 12.349765,10.413028 12.08576,10.309022 11.888757,10.102011L7.7706871,5.7737675C7.3896809,5.3727446 7.4056807,4.7407093 7.8056879,4.3596878 8.0056915,4.1696768 8.2639456,4.0781717 8.519825,4.0842972z M27.173141,3.6560421C27.42916,3.6575422 27.684679,3.7565498 27.878693,3.9525642 28.267721,4.344594 28.263721,4.9786415 27.870692,5.3666716L23.497373,9.6959982C23.303359,9.8890133 23.04834,9.9850206 22.794322,9.9850206 22.536303,9.9850206 22.278284,9.886013 22.08327,9.6889982 21.694242,9.2959681 21.698242,8.66292 22.091271,8.2738905L26.46459,3.9445639C26.660604,3.7505493,26.917122,3.654542,27.173141,3.6560421z M17.702986,0C18.255986,0,18.702986,0.44800186,18.702986,1.0000019L18.702986,6.5760098C18.702986,7.1280107 18.255986,7.5760117 17.702986,7.5760117 17.149986,7.5760117 16.702986,7.1280107 16.702986,6.5760098L16.702986,1.0000019C16.702986,0.44800186,17.149986,0,17.702986,0z" />
  </g>
</svg>

