<?xml version="1.0" encoding="utf-8"?>
<svg xmlns="http://www.w3.org/2000/svg" height="52" width="52" viewBox="0 0 52 52">
  <g>
    <path id="path1" transform="rotate(0,26,26) translate(0,8.125) scale(1.625,1.625)  " fill="#464646" d="M4,0L6,0C8.2060003,0,10,1.7940001,10,4L10,7 10,14 10,18C10,19.103,10.897,20,12,20L13,20C14.103,20,15,19.103,15,18L15,15 15,7 15,4C15,1.7940001,16.794,0,19,0L21,0C23.206,0,25,1.7940001,25,4L25,7 25,16 25,18C25,19.103027,25.896973,20,27,20L28,20C29.103027,20,30,19.103027,30,18L30,7C30,6.4470215 30.447998,6 31,6 31.552002,6 32,6.4470215 32,7L32,18C32,20.205994,30.205994,22,28,22L27,22C24.794006,22,23,20.205994,23,18L23,16 23,7 23,4C23,2.8970001,22.103,2,21,2L19,2C17.897,2,17,2.8970001,17,4L17,7 17,15 17,18C17,20.206,15.206,22,13,22L12,22C9.7939997,22,8,20.206,8,18L8,14 8,7 8,4C8,2.8970001,7.1029997,2,6,2L4,2C2.8969994,2,2,2.8970001,2,4L2,15C2,15.553 1.552,16 1,16 0.44799995,16 0,15.553 0,15L0,4C0,1.7940001,1.7940006,0,4,0z" />
  </g>
</svg>

