<svg xmlns="http://www.w3.org/2000/svg" width="256" height="40" viewBox="0 0 433.61 65.81">
<defs><style>.cls-1{fill:#261c02;}.cls-2{fill:#8dc63f;}</style></defs><title>Asset 1</title><g id="Layer_2" data-name="Layer 2"><g id="Layer_1-2" data-name="Layer 1"><path class="cls-1" d="M416.56,51.63c-4,0-6.53-1.1-7.57-4.32-1.32-4.08-1.32-13.31,0-17.37,1-3,3.48-4.6,7.67-4.6s7,1.82,7.49,4.6c.07.24.14.5.2.8h9.27c-1.62-10.66-8.76-13.3-17.05-13.29-9.08,0-14.71,3.87-16.46,10.77a46,46,0,0,0,0,20.65c.79,3.21,3.93,10.59,16.42,10.59,12.13,0,16-6.56,16.78-12.15h-9.19C423.61,49.2,422.18,51.63,416.56,51.63Z"/><path class="cls-1" d="M336,59.61c-5.27,0-10.44-1.91-13.56-4.86-1.7-1.65-2.59-3.28-2.59-6.65V43.47a8.26,8.26,0,0,1,2.68-6c2.86-2.78,7.67-4.34,13.47-4.34h7.32v-3.9c0-2.6-4.1-3.54-7.32-3.55-3.39,0-6.33,1.56-7,2.95l-8.12-4.34c2.41-4,8.66-6.85,15.17-6.85s16.24,3.3,16.24,10.33V49.29C352.23,54.75,344.64,59.61,336,59.61Zm7.32-18.4h-7.68c-3.12,0-6.87,1-6.87,3.73v2.87c0,2.92,4.73,3.73,7.23,3.73s7.32-.65,7.32-3.73Z"/><path class="cls-1" d="M305.23,58.57V28.9a2.13,2.13,0,0,0-.63-1.3c-1.34-1.3-4-2.17-6.6-2.17-3.84,0-7.23,2-7.23,3.47V58.57h-8.92V28.9a1.86,1.86,0,0,0-.71-1.3c-1.07-1-3.66-2.17-7.85-2.17a30.09,30.09,0,0,0-6,.61V58.57h-8.92v-39c3.12-.69,3.66-.87,3.66-.87a41.37,41.37,0,0,1,11.87-1.39,22.11,22.11,0,0,1,12.4,3.38A21.21,21.21,0,0,1,298,17.35c5.27,0,10.53,1.91,13.56,4.86a7.7,7.7,0,0,1,2.59,5.47V58.57Z"/><path class="cls-1" d="M370.16,27s0,15.25,0,19.83,6,4.73,7.29,5c0,0-2.85,6.54-3.39,7.78-7.54-.24-12.74-6-12.74-11.67V27l-5.21,0V18.31h5.22V1.82h8.86V18.31h8V27Z"/><path class="cls-1" d="M384.22,58.57V18.3h8.93V58.57Z"/><circle class="cls-1" cx="388.68" cy="6.7" r="5.05"/><path class="cls-1" d="M17.17,59.63c-10.51,0-15.65-4.82-17-6.29L0,53.12l5.07-6.29.27.25a17,17,0,0,0,11.84,4.69c2.92,0,7.82-.58,7.82-4.5,0-3-4-3.84-8.58-4.76-6.78-1.35-15.23-3-15.23-12.79,0-7.17,6.5-12.18,15.82-12.18,9.76,0,14.65,3.94,16.69,6.3l.2.23-5.27,5.86-.25-.26a15.8,15.8,0,0,0-11.43-4.44c-4.22,0-6.63,1.49-6.63,4.09,0,3,3.7,3.64,8.39,4.49,6.9,1.25,15.48,2.8,15.48,13.07C34.18,54.62,27.5,59.63,17.17,59.63Z"/><path class="cls-1" d="M92.56,59.61c-5.26,0-10.44-1.91-13.56-4.86-1.7-1.65-2.59-3.28-2.59-6.65V43.47a8.27,8.27,0,0,1,2.68-6c2.86-2.78,7.68-4.34,13.47-4.34h7.32v-3.9c0-2.6-4.1-3.54-7.32-3.55-3.39,0-6.33,1.56-7,2.95L77.4,24.29c2.41-4,8.66-6.85,15.17-6.85s16.24,3.3,16.24,10.33V49.29C108.81,54.75,101.22,59.61,92.56,59.61Zm7.32-18.4H92.21c-3.12,0-6.87,1-6.87,3.73v2.87c0,2.92,4.73,3.73,7.23,3.73s7.32-.65,7.32-3.73Z"/><path class="cls-1" d="M162.46,41.57c-.06,7.69,2.5,10.06,8.3,10.06,5.62,0,7.05-2.43,7.58-4.34h9.19c-.74,5.58-4.64,12.15-16.78,12.15-12.49,0-15.63-7.37-16.42-10.59a46,46,0,0,1,0-20.65c1.75-6.9,7.38-10.76,16.46-10.77,9.42,0,17.34,3.39,17.4,18.05v6.08Zm15.88-11.63c-.53-2.78-3.39-4.6-7.49-4.6s-7.05,1.82-7.68,4.6c-.18,1-.45,2.17-.63,3.9H179A21.32,21.32,0,0,0,178.35,29.94Z"/><path class="cls-1" d="M131.9,59.61c-5.27,0-10.63-1.72-13.57-4.86-4-4.24-4.2-11-4.2-14.4v-3c0-2.17,0-9.93,4.29-14.63,2.69-2.94,7.67-4.34,13.48-4.34h7.32V1.88h8.93v47.4C148.14,54.75,140.55,59.61,131.9,59.61Zm7.32-33.14h-7.67c-7.18,0-8.35,4.7-8.35,11.53v2.1c0,10.76,3.53,11.44,9,11.44,2.49,0,7-.65,7-3.73Z"/><path class="cls-1" d="M62,58.52V29.57c0-1.73-2-4-7-4-5.54,0-7.5,2.32-7.5,2.32V58.52h-9V1.76h9V19a20,20,0,0,1,11.69-1.23C66.82,19.17,71,23,71,28.23V58.52Z"/><path class="cls-2" d="M215.41,53.92V15.68c0-7.38,9.87-7.87,12.21-7.78h16.13C240,3.27,233.36,0,223,0c-18,0-24.75,9.88-24.75,19.57V46.24a19.19,19.19,0,0,0,1.54,7.62Z"/><path class="cls-2" d="M231,12.9v38c0,7.43-9.66,7.74-12.12,7.65H202.76c3.84,4.29,10.32,7.27,20.23,7.27,18,0,24.75-9.88,24.75-19.57V19.57a19.46,19.46,0,0,0-1.14-6.62Z"/></g></g></svg>