<?xml version="1.0" encoding="utf-8"?>
<!-- Generator: Adobe Illustrator 12.0.0, SVG Export Plug-In . SVG Version: 6.00 Build 51448)  -->
<!DOCTYPE svg PUBLIC "-//W3C//DTD SVG 1.1//EN" "http://www.w3.org/Graphics/SVG/1.1/DTD/svg11.dtd" [
	<!ENTITY ns_svg "http://www.w3.org/2000/svg">
	<!ENTITY ns_xlink "http://www.w3.org/1999/xlink">
]>
<svg  version="1.1" id="Layer_1" xmlns="&ns_svg;" xmlns:xlink="&ns_xlink;" width="202" height="399.27"
	 viewBox="0 0 2690.199 399.27" xml:space="preserve">
<g>
	<g id="null">
		<path fill="#261B01" d="M2527.187,313.226c-24.196,0-39.588-6.648-45.922-26.217c-8.016-24.736-8.016-80.754-0.088-105.395
			c5.936-18.467,21.109-27.893,46.561-27.893c24.889,0,42.23,11.05,45.46,27.893c0.445,1.44,0.847,3.051,1.226,4.835h56.227
			c-9.829-64.656-53.127-80.676-103.463-80.647c-55.082,0.042-89.231,23.479-99.843,65.32c-9.794,38.588-8.952,88.064,0.237,125.266
			c4.799,19.486,23.822,64.224,99.605,64.224c73.614,0,97.307-39.82,101.78-73.697h-55.77
			C2569.968,298.485,2561.291,313.226,2527.187,313.226z"/>
		<path fill="#261B01" d="M2082.771,250.051h-46.568c-18.958,0-41.686,6.316-41.686,22.632v17.389
			c0,17.722,28.688,22.633,43.837,22.633c15.706,0,44.417-3.964,44.417-22.633V250.051L2082.771,250.051z M2038.354,361.66
			c-31.945,0-63.322-11.564-82.281-29.492c-10.299-9.983-15.7-19.901-15.7-40.323v-28.102c0-13.165,5.401-25.796,16.244-36.33
			c17.336-16.838,46.563-26.329,81.737-26.329h44.417v-23.692c-0.094-15.772-24.866-21.483-44.417-21.555
			c-20.576-0.059-38.428,9.456-42.753,17.881l-49.269-26.33c14.62-24.22,52.521-41.591,92.021-41.591
			c40.157,0,98.55,20.031,98.55,62.647v130.563C2136.904,332.167,2090.875,361.66,2038.354,361.66z"/>
		<path fill="#261B01" d="M1851.816,355.322V175.3c0-2.109-1.097-4.746-3.798-7.904c-8.116-7.897-24.362-13.159-40.057-13.159
			c-23.272,0-43.854,12.104-43.854,21.063v180.022h-54.134V175.3c0-0.528,0-3.691-4.337-7.904
			c-6.499-6.315-22.205-13.159-47.629-13.159c-13.004,0-26.542,1.582-36.289,3.686v197.386l-54.134,0.037V131.072v-12.11
			c18.949-4.207,22.195-5.268,22.195-5.268c17.317-4.2,33.017-8.418,72.014-8.418c29.772,0,55.758,7.375,75.243,20.528
			c18.408-12.637,44.394-20.528,70.925-20.528c31.94,0,63.886,11.583,82.294,29.493c10.272,9.982,15.711,21.572,15.711,33.16
			v187.393H1851.816L1851.816,355.322z"/>
		<path fill="#261B01" d="M2245.724,163.716c0,0-0.112,92.515-0.124,120.295c-0.019,27.183,36.466,28.688,44.232,30.482
			c0,0-17.283,39.684-20.588,47.173c-45.737-1.463-77.287-36.573-77.287-70.776l-0.013-127.061l-31.637-0.113V111.07h31.666V11.038
			h53.727V111.07h48.457v52.646H2245.724L2245.724,163.716z"/>
		<path fill="#261B01" d="M2330.985,111.028h54.158v244.298h-54.158V111.028L2330.985,111.028z"/>
		<path fill="#261B01" d="M2327.413,40.673c0-16.921,13.722-30.654,30.649-30.654c16.914,0,30.646,13.733,30.646,30.654
			c0,16.933-13.732,30.66-30.646,30.66C2341.134,71.333,2327.413,57.605,2327.413,40.673z"/>
		<path fill="#261B01" d="M104.185,361.779c-63.776,0-94.946-29.215-102.992-38.173L0,322.273l30.734-38.155l1.615,1.547
			c19.266,18.39,44.723,28.443,71.836,28.443c17.721,0,47.442-3.536,47.442-27.276c0-18.473-24.123-23.302-52.055-28.883
			c-41.155-8.218-92.371-18.432-92.371-77.59c0-43.51,39.452-73.898,95.958-73.898c59.188,0,88.85,23.923,101.28,38.19l1.214,1.392
			l-31.96,35.578l-1.529-1.582c-6.211-6.441-29.096-26.963-69.351-26.963c-25.577,0-40.241,9.023-40.241,24.795
			c0,18.016,22.458,22.075,50.888,27.223c41.837,7.561,93.896,16.975,93.896,79.272
			C207.357,331.397,166.856,361.779,104.185,361.779z"/>
		<path fill="#261B01" d="M605.986,250.051h-46.556c-18.959,0-41.692,6.316-41.692,22.632v17.389
			c0,17.722,28.691,22.633,43.84,22.633c15.712,0,44.408-3.964,44.408-22.633V250.051L605.986,250.051z M561.578,361.66
			c-31.937,0-63.331-11.564-82.284-29.492c-10.291-9.983-15.701-19.901-15.701-40.323v-28.102c0-13.165,5.411-25.796,16.246-36.33
			c17.327-16.838,46.563-26.329,81.739-26.329h44.408v-23.692c-0.085-15.772-24.862-21.483-44.408-21.555
			c-20.566-0.059-38.433,9.456-42.766,17.881l-49.255-26.33c14.612-24.22,52.52-41.591,92.021-41.591
			c40.148,0,98.537,20.031,98.537,62.647v130.563C660.115,332.167,614.104,361.66,561.578,361.66z"/>
		<path fill="#261B01" d="M1081.999,181.615c-3.243-16.843-20.573-27.893-45.465-27.893c-25.456,0-42.788,11.05-46.563,27.893
			c-1.099,5.801-2.716,13.153-3.798,23.687h99.618C1084.7,194.252,1083.62,186.871,1081.999,181.615z M985.641,252.166
			c-0.39,46.64,15.149,61.061,50.341,61.061c34.109,0,42.774-14.741,46.017-26.317h55.766
			c-4.471,33.883-28.147,73.703-101.783,73.703c-75.785,0-94.801-44.743-99.606-64.229c-9.197-37.195-10.021-86.672-0.236-125.26
			c10.617-41.84,44.767-65.278,99.842-65.325c57.125-0.023,105.213,20.57,105.574,109.512v36.856H985.641L985.641,252.166z"/>
		<path fill="#261B01" d="M844.574,160.601H798.02c-43.569,0-50.639,28.509-50.639,69.976v12.709
			c0,65.295,21.439,69.431,54.719,69.431c15.11,0,42.473-3.976,42.473-22.645V160.601L844.574,160.601z M800.196,361.667
			c-31.949,0-64.473-10.464-82.313-29.499c-24.128-25.749-25.49-66.932-25.49-87.366v-18.117c0-13.165,0-60.218,26.045-88.728
			c16.302-17.828,46.556-26.323,81.758-26.323h44.378V11.423l54.152,0.042v287.543C898.726,332.167,852.702,361.667,800.196,361.667
			z"/>
		<path fill="#261B01" d="M376.261,355.012V179.417c0-10.463-12.134-24.303-42.409-24.303c-33.605,0-45.514,14.083-45.514,14.083
			l-0.079,185.815h-54.452l0.051-344.306h54.394v104.269c0,0,30.421-15.162,70.948-7.447c46.174,8.786,71.414,32.147,71.414,63.744
			v183.741H376.261L376.261,355.012z"/>
		<path fill="#8CC63E" d="M1306.855,327.119V95.133c0-44.779,59.902-47.723,74.061-47.231h97.835
			C1455.941,19.865,1415.765,0,1352.816,0c-109.419,0-150.17,59.958-150.17,118.731V280.54c0,15.729,2.954,31.514,9.317,46.241
			L1306.855,327.119L1306.855,327.119z"/>
		<path fill="#8CC63E" d="M1401.238,78.259v230.47c0.173,45.099-58.631,46.936-73.542,46.408v0.023h-97.592
			c23.29,26.015,62.621,44.109,122.712,44.109c109.411,0,150.148-59.94,150.148-118.73V118.731c0-13.574-2.204-27.207-6.896-40.181
			L1401.238,78.259L1401.238,78.259z"/>
		<path fill="#261B01" d="M2663.347,127.481h2.501c2.92,0,5.292-0.972,5.292-3.335c0-2.091-1.543-3.484-4.877-3.484
			c-1.387,0-2.358,0.137-2.916,0.279V127.481L2663.347,127.481z M2663.206,140.279h-5.292v-22.815
			c2.093-0.279,5.015-0.693,8.771-0.693c4.312,0,6.262,0.693,7.79,1.807c1.387,0.977,2.37,2.642,2.37,4.869
			c0,2.785-2.093,4.592-4.739,5.421v0.278c2.232,0.699,3.346,2.506,4.035,5.575c0.704,3.472,1.254,4.728,1.676,5.558h-5.563
			c-0.699-0.83-1.113-2.785-1.813-5.558c-0.415-2.37-1.809-3.478-4.73-3.478h-2.505V140.279L2663.206,140.279z M2649.152,128.458
			c0,10.155,7.654,18.225,17.811,18.225c9.882,0.137,17.395-8.069,17.395-18.088c0-10.161-7.513-18.366-17.673-18.366
			C2656.806,110.229,2649.152,118.434,2649.152,128.458z M2690.199,128.458c0,12.798-10.297,22.958-23.374,22.958
			c-13.08,0-23.52-10.161-23.52-22.958c0-12.802,10.439-22.827,23.657-22.827C2679.902,105.631,2690.199,115.656,2690.199,128.458z"
			/>
	</g>
</g>
</svg>
